# xmcd CD database file
#
# Track frame offsets:
#	150
#	15734
#	31214
#	43890
#	55319
#	70820
#	87193
#	114245
#	133571
#	162268
#	188718
#	217354
#	249964
#	265264
#
# Disc length: 3926 seconds
#
# Revision: 1
# Processed by: cddbd v1.5.2PL0 Copyright (c) Steve Scherf et al.
# Submitted via: CDex 1.70beta2
#
DISCID=c20f540e
DTITLE=Dizzy Gillespie - Eight Classic Albums - Real Gone Jazz - D1
DYEAR=1950
DGENRE=Jazz
TTITLE0=Bloom Dido (Bird and Diz LP)
TTITLE1=My Melancholy Baby (Bird and Diz LP)
TTITLE2=Relaxin' with Lee (Bird and Diz LP)
TTITLE3=Leap Frog (Bird and Diz LP)
TTITLE4=An Oscar For Treadwell (Bird and Diz LP)
TTITLE5=Mohawk (Bird and Diz LP)
TTITLE6=My Heart Belongs to Daddy (Have Trumpet, Will Excite! LP)
TTITLE7=My Man (Have Trumpet, Will Excite! LP)
TTITLE8=Moonglow (Have Trumpet, Will Excite! LP)
TTITLE9=St Louis Blues (Have Trumpet, Will Excite! LP)
TTITLE10=Woody 'n' You (Have Trumpet, Will Excite! LP)
TTITLE11=Wrap Your Troubles in Dreams (Have Trumpet, Will Excite! LP)
TTITLE12=There is No Greater Love (Have Trumpet, Will Excite! LP)
TTITLE13=I Found a Million Dollar Baby (In a Five and Ten Cent Store) (Have Trumpet, Will Excite! LP)
EXTD=YEAR: 1950
EXTT0=
EXTT1=
EXTT2=
EXTT3=
EXTT4=
EXTT5=
EXTT6=
EXTT7=
EXTT8=
EXTT9=
EXTT10=
EXTT11=
EXTT12=
EXTT13=
PLAYORDER=
